<svg width="375" height="505" viewBox="0 0 375 505" fill="none" xmlns="http://www.w3.org/2000/svg">
<rect width="375" height="505" rx="40" fill="#926247"/>
<rect x="121" y="492" width="134" height="5" rx="2.5" fill="white"/>
<rect x="107.5" y="96.5" width="160" height="160" rx="80" fill="#F7F4F2"/>
<path fill-rule="evenodd" clip-rule="evenodd" d="M227.5 143.167C231.182 143.167 234.167 146.151 234.167 149.833L234.167 169.833C234.167 173.515 231.182 176.5 227.5 176.5C223.818 176.5 220.833 173.515 220.833 169.833L220.833 149.833C220.833 146.151 223.818 143.167 227.5 143.167Z" fill="#4F3422"/>
<path fill-rule="evenodd" clip-rule="evenodd" d="M147.5 143.167C151.182 143.167 154.167 146.151 154.167 149.833L154.167 169.833C154.167 173.515 151.182 176.5 147.5 176.5C143.818 176.5 140.833 173.515 140.833 169.833L140.833 149.833C140.833 146.151 143.818 143.167 147.5 143.167Z" fill="#4F3422"/>
<path fill-rule="evenodd" clip-rule="evenodd" d="M140.833 203.167C140.833 199.485 143.818 196.5 147.5 196.5H227.5C231.182 196.5 234.167 199.485 234.167 203.167C234.167 206.849 231.182 209.833 227.5 209.833H147.5C143.818 209.833 140.833 206.849 140.833 203.167Z" fill="#4F3422"/>
<path d="M65.2178 303.5H68.3378V318.5H65.2178V303.5ZM66.8078 301.325C66.3278 301.325 65.9278 301.17 65.6078 300.86C65.2878 300.55 65.1278 300.16 65.1278 299.69C65.1278 299.23 65.2878 298.845 65.6078 298.535C65.9278 298.215 66.3228 298.055 66.7928 298.055C67.2528 298.055 67.6428 298.215 67.9628 298.535C68.2828 298.845 68.4428 299.23 68.4428 299.69C68.4428 300.16 68.2828 300.55 67.9628 300.86C67.6528 301.17 67.2678 301.325 66.8078 301.325ZM84.5103 318.5H80.9103L77.2203 312.14L74.8053 315.02V318.5H71.6853V296H74.8053V310.175L80.3853 303.5H84.4653L79.3503 309.605L84.5103 318.5ZM102.458 318.5H98.4533L92.9783 303.47H96.3083L100.448 314.9L104.603 303.47H107.918L102.458 318.5ZM115.94 318.89C114.56 318.89 113.3 318.535 112.16 317.825C111.03 317.115 110.125 316.165 109.445 314.975C108.775 313.775 108.44 312.45 108.44 311C108.44 309.9 108.635 308.875 109.025 307.925C109.415 306.965 109.95 306.125 110.63 305.405C111.32 304.675 112.12 304.105 113.03 303.695C113.94 303.285 114.91 303.08 115.94 303.08C117.32 303.08 118.575 303.435 119.705 304.145C120.845 304.855 121.75 305.81 122.42 307.01C123.1 308.21 123.44 309.54 123.44 311C123.44 312.09 123.245 313.11 122.855 314.06C122.465 315.01 121.925 315.85 121.235 316.58C120.555 317.3 119.76 317.865 118.85 318.275C117.95 318.685 116.98 318.89 115.94 318.89ZM115.94 315.77C116.77 315.77 117.515 315.55 118.175 315.11C118.835 314.67 119.355 314.09 119.735 313.37C120.125 312.64 120.32 311.85 120.32 311C120.32 310.13 120.12 309.33 119.72 308.6C119.33 307.87 118.805 307.29 118.145 306.86C117.485 306.42 116.75 306.2 115.94 306.2C115.12 306.2 114.375 306.42 113.705 306.86C113.045 307.3 112.52 307.885 112.13 308.615C111.75 309.345 111.56 310.14 111.56 311C111.56 311.89 111.76 312.695 112.16 313.415C112.56 314.135 113.09 314.71 113.75 315.14C114.42 315.56 115.15 315.77 115.94 315.77ZM132.134 318.89C130.754 318.89 129.494 318.535 128.354 317.825C127.224 317.115 126.319 316.165 125.639 314.975C124.969 313.775 124.634 312.45 124.634 311C124.634 309.9 124.829 308.875 125.219 307.925C125.609 306.965 126.144 306.125 126.824 305.405C127.514 304.675 128.314 304.105 129.224 303.695C130.134 303.285 131.104 303.08 132.134 303.08C133.284 303.08 134.339 303.32 135.299 303.8C136.259 304.27 137.079 304.925 137.759 305.765C138.439 306.595 138.939 307.555 139.259 308.645C139.579 309.725 139.674 310.875 139.544 312.095H127.979C128.109 312.785 128.359 313.41 128.729 313.97C129.109 314.52 129.589 314.955 130.169 315.275C130.759 315.595 131.414 315.76 132.134 315.77C132.894 315.77 133.584 315.58 134.204 315.2C134.834 314.82 135.349 314.295 135.749 313.625L138.914 314.36C138.314 315.69 137.409 316.78 136.199 317.63C134.989 318.47 133.634 318.89 132.134 318.89ZM127.874 309.71H136.394C136.294 308.99 136.039 308.34 135.629 307.76C135.229 307.17 134.724 306.705 134.114 306.365C133.514 306.015 132.854 305.84 132.134 305.84C131.424 305.84 130.764 306.01 130.154 306.35C129.554 306.69 129.054 307.155 128.654 307.745C128.264 308.325 128.004 308.98 127.874 309.71ZM141.523 318.5V296H144.643V318.5H141.523ZM154.839 318.5V303.5H157.959V305.09C158.479 304.47 159.114 303.98 159.864 303.62C160.624 303.26 161.444 303.08 162.324 303.08C163.394 303.08 164.379 303.34 165.279 303.86C166.179 304.37 166.894 305.05 167.424 305.9C167.954 305.05 168.659 304.37 169.539 303.86C170.429 303.34 171.409 303.08 172.479 303.08C173.589 303.08 174.599 303.35 175.509 303.89C176.419 304.43 177.144 305.155 177.684 306.065C178.224 306.975 178.494 307.985 178.494 309.095V318.5H175.374V309.89C175.374 309.23 175.214 308.625 174.894 308.075C174.574 307.525 174.144 307.08 173.604 306.74C173.064 306.4 172.464 306.23 171.804 306.23C171.144 306.23 170.544 306.39 170.004 306.71C169.464 307.03 169.034 307.465 168.714 308.015C168.394 308.565 168.234 309.19 168.234 309.89V318.5H165.114V309.89C165.114 309.19 164.954 308.565 164.634 308.015C164.314 307.465 163.879 307.03 163.329 306.71C162.789 306.39 162.189 306.23 161.529 306.23C160.879 306.23 160.279 306.4 159.729 306.74C159.189 307.08 158.759 307.525 158.439 308.075C158.119 308.625 157.959 309.23 157.959 309.89V318.5H154.839ZM187.506 318.89C186.126 318.89 184.866 318.535 183.726 317.825C182.596 317.115 181.691 316.165 181.011 314.975C180.341 313.775 180.006 312.45 180.006 311C180.006 309.9 180.201 308.875 180.591 307.925C180.981 306.965 181.516 306.125 182.196 305.405C182.886 304.675 183.686 304.105 184.596 303.695C185.506 303.285 186.476 303.08 187.506 303.08C188.656 303.08 189.711 303.32 190.671 303.8C191.631 304.27 192.451 304.925 193.131 305.765C193.811 306.595 194.311 307.555 194.631 308.645C194.951 309.725 195.046 310.875 194.916 312.095H183.351C183.481 312.785 183.731 313.41 184.101 313.97C184.481 314.52 184.961 314.955 185.541 315.275C186.131 315.595 186.786 315.76 187.506 315.77C188.266 315.77 188.956 315.58 189.576 315.2C190.206 314.82 190.721 314.295 191.121 313.625L194.286 314.36C193.686 315.69 192.781 316.78 191.571 317.63C190.361 318.47 189.006 318.89 187.506 318.89ZM183.246 309.71H191.766C191.666 308.99 191.411 308.34 191.001 307.76C190.601 307.17 190.096 306.705 189.486 306.365C188.886 306.015 188.226 305.84 187.506 305.84C186.796 305.84 186.136 306.01 185.526 306.35C184.926 306.69 184.426 307.155 184.026 307.745C183.636 308.325 183.376 308.98 183.246 309.71ZM217.771 309.095V318.5H214.651V309.86C214.651 309.19 214.486 308.58 214.156 308.03C213.836 307.48 213.401 307.045 212.851 306.725C212.311 306.395 211.701 306.23 211.021 306.23C210.361 306.23 209.756 306.395 209.206 306.725C208.656 307.045 208.216 307.48 207.886 308.03C207.556 308.58 207.391 309.19 207.391 309.86V318.5H204.271V303.5H207.391V305.09C207.911 304.47 208.551 303.98 209.311 303.62C210.071 303.26 210.891 303.08 211.771 303.08C212.881 303.08 213.891 303.35 214.801 303.89C215.711 304.43 216.431 305.155 216.961 306.065C217.501 306.975 217.771 307.985 217.771 309.095ZM226.772 318.89C225.392 318.89 224.132 318.535 222.992 317.825C221.862 317.115 220.957 316.165 220.277 314.975C219.607 313.775 219.272 312.45 219.272 311C219.272 309.9 219.467 308.875 219.857 307.925C220.247 306.965 220.782 306.125 221.462 305.405C222.152 304.675 222.952 304.105 223.862 303.695C224.772 303.285 225.742 303.08 226.772 303.08C227.922 303.08 228.977 303.32 229.937 303.8C230.897 304.27 231.717 304.925 232.397 305.765C233.077 306.595 233.577 307.555 233.897 308.645C234.217 309.725 234.312 310.875 234.182 312.095H222.617C222.747 312.785 222.997 313.41 223.367 313.97C223.747 314.52 224.227 314.955 224.807 315.275C225.397 315.595 226.052 315.76 226.772 315.77C227.532 315.77 228.222 315.58 228.842 315.2C229.472 314.82 229.987 314.295 230.387 313.625L233.552 314.36C232.952 315.69 232.047 316.78 230.837 317.63C229.627 318.47 228.272 318.89 226.772 318.89ZM222.512 309.71H231.032C230.932 308.99 230.677 308.34 230.267 307.76C229.867 307.17 229.362 306.705 228.752 306.365C228.152 306.015 227.492 305.84 226.772 305.84C226.062 305.84 225.402 306.01 224.792 306.35C224.192 306.69 223.692 307.155 223.292 307.745C222.902 308.325 222.642 308.98 222.512 309.71ZM235.474 312.875V303.5H238.594V312.11C238.594 312.78 238.759 313.39 239.089 313.94C239.419 314.49 239.859 314.93 240.409 315.26C240.959 315.58 241.564 315.74 242.224 315.74C242.894 315.74 243.499 315.58 244.039 315.26C244.589 314.93 245.024 314.49 245.344 313.94C245.674 313.39 245.839 312.78 245.839 312.11V303.5H248.959L248.974 318.5H245.854L245.839 316.88C245.329 317.5 244.694 317.99 243.934 318.35C243.174 318.71 242.359 318.89 241.489 318.89C240.379 318.89 239.369 318.62 238.459 318.08C237.549 317.54 236.824 316.815 236.284 315.905C235.744 314.995 235.474 313.985 235.474 312.875ZM259.602 306.62H256.452L256.437 318.5H253.317L253.332 306.62H250.947V303.5H253.332L253.317 298.79H256.437L256.452 303.5H259.602V306.62ZM261.987 318.5V303.5H265.107V305.09C265.627 304.47 266.267 303.98 267.027 303.62C267.787 303.26 268.607 303.08 269.487 303.08C270.047 303.08 270.602 303.155 271.152 303.305L269.907 306.455C269.517 306.305 269.127 306.23 268.737 306.23C268.077 306.23 267.472 306.395 266.922 306.725C266.372 307.045 265.932 307.48 265.602 308.03C265.272 308.58 265.107 309.19 265.107 309.86V318.5H261.987ZM283.553 303.5H286.673V318.5H283.538L283.418 316.325C282.978 317.095 282.383 317.715 281.633 318.185C280.883 318.655 279.998 318.89 278.978 318.89C277.878 318.89 276.843 318.685 275.873 318.275C274.903 317.855 274.048 317.275 273.308 316.535C272.578 315.795 272.008 314.945 271.598 313.985C271.188 313.015 270.983 311.975 270.983 310.865C270.983 309.795 271.183 308.79 271.583 307.85C271.983 306.9 272.538 306.07 273.248 305.36C273.958 304.65 274.778 304.095 275.708 303.695C276.648 303.285 277.653 303.08 278.723 303.08C279.813 303.08 280.773 303.33 281.603 303.83C282.443 304.32 283.138 304.95 283.688 305.72L283.553 303.5ZM278.903 315.875C279.783 315.875 280.553 315.66 281.213 315.23C281.873 314.79 282.383 314.2 282.743 313.46C283.113 312.72 283.298 311.9 283.298 311C283.298 310.09 283.113 309.265 282.743 308.525C282.373 307.785 281.858 307.2 281.198 306.77C280.548 306.33 279.783 306.11 278.903 306.11C278.033 306.11 277.238 306.33 276.518 306.77C275.798 307.21 275.228 307.8 274.808 308.54C274.388 309.28 274.178 310.1 274.178 311C274.178 311.91 274.393 312.735 274.823 313.475C275.263 314.205 275.838 314.79 276.548 315.23C277.268 315.66 278.053 315.875 278.903 315.875ZM300.743 303.5H303.863V318.5H300.728L300.608 316.325C300.168 317.095 299.573 317.715 298.823 318.185C298.073 318.655 297.188 318.89 296.168 318.89C295.068 318.89 294.033 318.685 293.063 318.275C292.093 317.855 291.238 317.275 290.498 316.535C289.768 315.795 289.198 314.945 288.788 313.985C288.378 313.015 288.173 311.975 288.173 310.865C288.173 309.795 288.373 308.79 288.773 307.85C289.173 306.9 289.728 306.07 290.438 305.36C291.148 304.65 291.968 304.095 292.898 303.695C293.838 303.285 294.843 303.08 295.913 303.08C297.003 303.08 297.963 303.33 298.793 303.83C299.633 304.32 300.328 304.95 300.878 305.72L300.743 303.5ZM296.093 315.875C296.973 315.875 297.743 315.66 298.403 315.23C299.063 314.79 299.573 314.2 299.933 313.46C300.303 312.72 300.488 311.9 300.488 311C300.488 310.09 300.303 309.265 299.933 308.525C299.563 307.785 299.048 307.2 298.388 306.77C297.738 306.33 296.973 306.11 296.093 306.11C295.223 306.11 294.428 306.33 293.708 306.77C292.988 307.21 292.418 307.8 291.998 308.54C291.578 309.28 291.368 310.1 291.368 311C291.368 311.91 291.583 312.735 292.013 313.475C292.453 314.205 293.028 314.79 293.738 315.23C294.458 315.66 295.243 315.875 296.093 315.875ZM306.673 318.5V296H309.793V318.5H306.673Z" fill="white"/>
<path d="M32.731 392.351C75.4261 428.176 129.259 448.025 184.991 448.492C240.724 448.958 294.881 430.013 338.17 394.907" stroke="#704A33" stroke-width="12"/>
<path d="M32.731 392.351C76.6512 429.204 132.314 449.117 189.644 448.485" stroke="white" stroke-width="12"/>
<rect x="12" y="370.5" width="44" height="44" rx="22" fill="white"/>
<rect x="12" y="370.5" width="44" height="44" rx="22" stroke="#926247" stroke-width="8"/>
<circle cx="34" cy="392.5" r="4" fill="#926247"/>
<rect x="319" y="370.5" width="44" height="44" rx="22" fill="#704A33"/>
<rect x="319" y="370.5" width="44" height="44" rx="22" stroke="#926247" stroke-width="8"/>
<circle cx="341" cy="392.5" r="4" fill="#926247"/>
<rect x="165" y="426.5" width="44" height="44" rx="22" fill="white"/>
<rect x="165" y="426.5" width="44" height="44" rx="22" stroke="#AC836C" stroke-width="8"/>
<circle cx="187" cy="448.5" r="4" fill="#926247"/>
<rect x="76" y="412.5" width="44" height="44" rx="22" fill="white"/>
<rect x="76" y="412.5" width="44" height="44" rx="22" stroke="#926247" stroke-width="8"/>
<circle cx="98" cy="434.5" r="4" fill="#926247"/>
<rect x="254" y="412.5" width="44" height="44" rx="22" fill="#704A33"/>
<rect x="254" y="412.5" width="44" height="44" rx="22" stroke="#926247" stroke-width="8"/>
<circle cx="276" cy="434.5" r="4" fill="#926247"/>
</svg>
