<svg width="375" height="505" viewBox="0 0 375 505" fill="none" xmlns="http://www.w3.org/2000/svg">
<rect width="375" height="505" rx="40" fill="#EF8834"/>
<rect x="121" y="492" width="134" height="5" rx="2.5" fill="white"/>
<path d="M39.8332 305H42.9532V320H39.8332V305ZM41.4232 302.825C40.9432 302.825 40.5432 302.67 40.2232 302.36C39.9032 302.05 39.7432 301.66 39.7432 301.19C39.7432 300.73 39.9032 300.345 40.2232 300.035C40.5432 299.715 40.9382 299.555 41.4082 299.555C41.8682 299.555 42.2582 299.715 42.5782 300.035C42.8982 300.345 43.0582 300.73 43.0582 301.19C43.0582 301.66 42.8982 302.05 42.5782 302.36C42.2682 302.67 41.8832 302.825 41.4232 302.825ZM59.1258 320H55.5258L51.8358 313.64L49.4208 316.52V320H46.3008V297.5H49.4208V311.675L55.0008 305H59.0808L53.9658 311.105L59.1258 320ZM77.0738 320H73.0688L67.5938 304.97H70.9238L75.0638 316.4L79.2188 304.97H82.5338L77.0738 320ZM90.5555 320.39C89.1755 320.39 87.9155 320.035 86.7755 319.325C85.6455 318.615 84.7405 317.665 84.0605 316.475C83.3905 315.275 83.0555 313.95 83.0555 312.5C83.0555 311.4 83.2505 310.375 83.6405 309.425C84.0305 308.465 84.5655 307.625 85.2455 306.905C85.9355 306.175 86.7355 305.605 87.6455 305.195C88.5555 304.785 89.5255 304.58 90.5555 304.58C91.9355 304.58 93.1905 304.935 94.3205 305.645C95.4605 306.355 96.3655 307.31 97.0355 308.51C97.7155 309.71 98.0555 311.04 98.0555 312.5C98.0555 313.59 97.8605 314.61 97.4705 315.56C97.0805 316.51 96.5405 317.35 95.8505 318.08C95.1705 318.8 94.3755 319.365 93.4655 319.775C92.5655 320.185 91.5955 320.39 90.5555 320.39ZM90.5555 317.27C91.3855 317.27 92.1305 317.05 92.7905 316.61C93.4505 316.17 93.9705 315.59 94.3505 314.87C94.7405 314.14 94.9355 313.35 94.9355 312.5C94.9355 311.63 94.7355 310.83 94.3355 310.1C93.9455 309.37 93.4205 308.79 92.7605 308.36C92.1005 307.92 91.3655 307.7 90.5555 307.7C89.7355 307.7 88.9905 307.92 88.3205 308.36C87.6605 308.8 87.1355 309.385 86.7455 310.115C86.3655 310.845 86.1755 311.64 86.1755 312.5C86.1755 313.39 86.3755 314.195 86.7755 314.915C87.1755 315.635 87.7055 316.21 88.3655 316.64C89.0355 317.06 89.7655 317.27 90.5555 317.27ZM106.75 320.39C105.37 320.39 104.11 320.035 102.97 319.325C101.84 318.615 100.935 317.665 100.255 316.475C99.5846 315.275 99.2496 313.95 99.2496 312.5C99.2496 311.4 99.4446 310.375 99.8346 309.425C100.225 308.465 100.76 307.625 101.44 306.905C102.13 306.175 102.93 305.605 103.84 305.195C104.75 304.785 105.72 304.58 106.75 304.58C107.9 304.58 108.955 304.82 109.915 305.3C110.875 305.77 111.695 306.425 112.375 307.265C113.055 308.095 113.555 309.055 113.875 310.145C114.195 311.225 114.29 312.375 114.16 313.595H102.595C102.725 314.285 102.975 314.91 103.345 315.47C103.725 316.02 104.205 316.455 104.785 316.775C105.375 317.095 106.03 317.26 106.75 317.27C107.51 317.27 108.2 317.08 108.82 316.7C109.45 316.32 109.965 315.795 110.365 315.125L113.53 315.86C112.93 317.19 112.025 318.28 110.815 319.13C109.605 319.97 108.25 320.39 106.75 320.39ZM102.49 311.21H111.01C110.91 310.49 110.655 309.84 110.245 309.26C109.845 308.67 109.34 308.205 108.73 307.865C108.13 307.515 107.47 307.34 106.75 307.34C106.04 307.34 105.38 307.51 104.77 307.85C104.17 308.19 103.67 308.655 103.27 309.245C102.88 309.825 102.62 310.48 102.49 311.21ZM116.139 320V297.5H119.259V320H116.139ZM129.455 320V305H132.575V306.59C133.095 305.97 133.73 305.48 134.48 305.12C135.24 304.76 136.06 304.58 136.94 304.58C138.01 304.58 138.995 304.84 139.895 305.36C140.795 305.87 141.51 306.55 142.04 307.4C142.57 306.55 143.275 305.87 144.155 305.36C145.045 304.84 146.025 304.58 147.095 304.58C148.205 304.58 149.215 304.85 150.125 305.39C151.035 305.93 151.76 306.655 152.3 307.565C152.84 308.475 153.11 309.485 153.11 310.595V320H149.99V311.39C149.99 310.73 149.83 310.125 149.51 309.575C149.19 309.025 148.76 308.58 148.22 308.24C147.68 307.9 147.08 307.73 146.42 307.73C145.76 307.73 145.16 307.89 144.62 308.21C144.08 308.53 143.65 308.965 143.33 309.515C143.01 310.065 142.85 310.69 142.85 311.39V320H139.73V311.39C139.73 310.69 139.57 310.065 139.25 309.515C138.93 308.965 138.495 308.53 137.945 308.21C137.405 307.89 136.805 307.73 136.145 307.73C135.495 307.73 134.895 307.9 134.345 308.24C133.805 308.58 133.375 309.025 133.055 309.575C132.735 310.125 132.575 310.73 132.575 311.39V320H129.455ZM162.122 320.39C160.742 320.39 159.482 320.035 158.342 319.325C157.212 318.615 156.307 317.665 155.627 316.475C154.957 315.275 154.622 313.95 154.622 312.5C154.622 311.4 154.817 310.375 155.207 309.425C155.597 308.465 156.132 307.625 156.812 306.905C157.502 306.175 158.302 305.605 159.212 305.195C160.122 304.785 161.092 304.58 162.122 304.58C163.272 304.58 164.327 304.82 165.287 305.3C166.247 305.77 167.067 306.425 167.747 307.265C168.427 308.095 168.927 309.055 169.247 310.145C169.567 311.225 169.662 312.375 169.532 313.595H157.967C158.097 314.285 158.347 314.91 158.717 315.47C159.097 316.02 159.577 316.455 160.157 316.775C160.747 317.095 161.402 317.26 162.122 317.27C162.882 317.27 163.572 317.08 164.192 316.7C164.822 316.32 165.337 315.795 165.737 315.125L168.902 315.86C168.302 317.19 167.397 318.28 166.187 319.13C164.977 319.97 163.622 320.39 162.122 320.39ZM157.862 311.21H166.382C166.282 310.49 166.027 309.84 165.617 309.26C165.217 308.67 164.712 308.205 164.102 307.865C163.502 307.515 162.842 307.34 162.122 307.34C161.412 307.34 160.752 307.51 160.142 307.85C159.542 308.19 159.042 308.655 158.642 309.245C158.252 309.825 157.992 310.48 157.862 311.21ZM187.467 320H183.462L177.987 304.97H181.317L185.457 316.4L189.612 304.97H192.927L187.467 320ZM200.948 320.39C199.568 320.39 198.308 320.035 197.168 319.325C196.038 318.615 195.133 317.665 194.453 316.475C193.783 315.275 193.448 313.95 193.448 312.5C193.448 311.4 193.643 310.375 194.033 309.425C194.423 308.465 194.958 307.625 195.638 306.905C196.328 306.175 197.128 305.605 198.038 305.195C198.948 304.785 199.918 304.58 200.948 304.58C202.098 304.58 203.153 304.82 204.113 305.3C205.073 305.77 205.893 306.425 206.573 307.265C207.253 308.095 207.753 309.055 208.073 310.145C208.393 311.225 208.488 312.375 208.358 313.595H196.793C196.923 314.285 197.173 314.91 197.543 315.47C197.923 316.02 198.403 316.455 198.983 316.775C199.573 317.095 200.228 317.26 200.948 317.27C201.708 317.27 202.398 317.08 203.018 316.7C203.648 316.32 204.163 315.795 204.563 315.125L207.728 315.86C207.128 317.19 206.223 318.28 205.013 319.13C203.803 319.97 202.448 320.39 200.948 320.39ZM196.688 311.21H205.208C205.108 310.49 204.853 309.84 204.443 309.26C204.043 308.67 203.538 308.205 202.928 307.865C202.328 307.515 201.668 307.34 200.948 307.34C200.238 307.34 199.578 307.51 198.968 307.85C198.368 308.19 197.868 308.655 197.468 309.245C197.078 309.825 196.818 310.48 196.688 311.21ZM210.543 320V305H213.663V306.59C214.183 305.97 214.823 305.48 215.583 305.12C216.343 304.76 217.163 304.58 218.043 304.58C218.603 304.58 219.158 304.655 219.708 304.805L218.463 307.955C218.073 307.805 217.683 307.73 217.293 307.73C216.633 307.73 216.028 307.895 215.478 308.225C214.928 308.545 214.488 308.98 214.158 309.53C213.828 310.08 213.663 310.69 213.663 311.36V320H210.543ZM232.123 297.5H235.243V320H232.123V317.795C231.633 318.575 230.993 319.205 230.203 319.685C229.413 320.155 228.488 320.39 227.428 320.39C226.338 320.39 225.318 320.185 224.368 319.775C223.418 319.365 222.578 318.8 221.848 318.08C221.128 317.35 220.563 316.51 220.153 315.56C219.743 314.61 219.538 313.59 219.538 312.5C219.538 311.41 219.743 310.39 220.153 309.44C220.563 308.48 221.128 307.64 221.848 306.92C222.578 306.19 223.418 305.62 224.368 305.21C225.318 304.8 226.338 304.595 227.428 304.595C228.488 304.595 229.413 304.835 230.203 305.315C230.993 305.785 231.633 306.405 232.123 307.175V297.5ZM227.458 317.375C228.338 317.375 229.108 317.16 229.768 316.73C230.428 316.29 230.938 315.7 231.298 314.96C231.668 314.22 231.853 313.4 231.853 312.5C231.853 311.59 231.668 310.765 231.298 310.025C230.928 309.285 230.413 308.7 229.753 308.27C229.103 307.83 228.338 307.61 227.458 307.61C226.588 307.61 225.793 307.83 225.073 308.27C224.363 308.71 223.793 309.3 223.363 310.04C222.943 310.78 222.733 311.6 222.733 312.5C222.733 313.41 222.948 314.235 223.378 314.975C223.818 315.705 224.393 316.29 225.103 316.73C225.823 317.16 226.608 317.375 227.458 317.375ZM238.536 320V305H241.656V306.59C242.176 305.97 242.816 305.48 243.576 305.12C244.336 304.76 245.156 304.58 246.036 304.58C246.596 304.58 247.151 304.655 247.701 304.805L246.456 307.955C246.066 307.805 245.676 307.73 245.286 307.73C244.626 307.73 244.021 307.895 243.471 308.225C242.921 308.545 242.481 308.98 242.151 309.53C241.821 310.08 241.656 310.69 241.656 311.36V320H238.536ZM249.135 305H252.255V320H249.135V305ZM250.725 302.825C250.245 302.825 249.845 302.67 249.525 302.36C249.205 302.05 249.045 301.66 249.045 301.19C249.045 300.73 249.205 300.345 249.525 300.035C249.845 299.715 250.24 299.555 250.71 299.555C251.17 299.555 251.56 299.715 251.88 300.035C252.2 300.345 252.36 300.73 252.36 301.19C252.36 301.66 252.2 302.05 251.88 302.36C251.57 302.67 251.185 302.825 250.725 302.825ZM261.88 320.39C260.5 320.39 259.24 320.035 258.1 319.325C256.97 318.615 256.065 317.665 255.385 316.475C254.715 315.275 254.38 313.95 254.38 312.5C254.38 311.4 254.575 310.375 254.965 309.425C255.355 308.465 255.89 307.625 256.57 306.905C257.26 306.175 258.06 305.605 258.97 305.195C259.88 304.785 260.85 304.58 261.88 304.58C263.03 304.58 264.085 304.82 265.045 305.3C266.005 305.77 266.825 306.425 267.505 307.265C268.185 308.095 268.685 309.055 269.005 310.145C269.325 311.225 269.42 312.375 269.29 313.595H257.725C257.855 314.285 258.105 314.91 258.475 315.47C258.855 316.02 259.335 316.455 259.915 316.775C260.505 317.095 261.16 317.26 261.88 317.27C262.64 317.27 263.33 317.08 263.95 316.7C264.58 316.32 265.095 315.795 265.495 315.125L268.66 315.86C268.06 317.19 267.155 318.28 265.945 319.13C264.735 319.97 263.38 320.39 261.88 320.39ZM257.62 311.21H266.14C266.04 310.49 265.785 309.84 265.375 309.26C264.975 308.67 264.47 308.205 263.86 307.865C263.26 307.515 262.6 307.34 261.88 307.34C261.17 307.34 260.51 307.51 259.9 307.85C259.3 308.19 258.8 308.655 258.4 309.245C258.01 309.825 257.75 310.48 257.62 311.21ZM279.306 308.12H276.156L276.141 320H273.021L273.036 308.12H270.651V305H273.036L273.021 300.29H276.141L276.156 305H279.306V308.12ZM281.487 305H284.607V320H281.487V305ZM283.077 302.825C282.597 302.825 282.197 302.67 281.877 302.36C281.557 302.05 281.397 301.66 281.397 301.19C281.397 300.73 281.557 300.345 281.877 300.035C282.197 299.715 282.592 299.555 283.062 299.555C283.522 299.555 283.912 299.715 284.232 300.035C284.552 300.345 284.712 300.73 284.712 301.19C284.712 301.66 284.552 302.05 284.232 302.36C283.922 302.67 283.537 302.825 283.077 302.825ZM299.047 305H302.167V320.39C302.167 321.42 301.947 322.37 301.507 323.24C301.077 324.11 300.492 324.86 299.752 325.49C299.012 326.13 298.162 326.625 297.202 326.975C296.252 327.325 295.257 327.5 294.217 327.5C293.167 327.5 292.157 327.275 291.187 326.825C290.217 326.385 289.362 325.785 288.622 325.025C287.892 324.265 287.347 323.405 286.987 322.445L289.852 321.155C290.052 321.775 290.372 322.325 290.812 322.805C291.262 323.285 291.782 323.665 292.372 323.945C292.972 324.225 293.587 324.365 294.217 324.365C294.837 324.365 295.432 324.265 296.002 324.065C296.582 323.875 297.097 323.605 297.547 323.255C298.007 322.905 298.372 322.485 298.642 321.995C298.912 321.505 299.047 320.97 299.047 320.39V317.855C298.557 318.615 297.927 319.23 297.157 319.7C296.387 320.16 295.492 320.39 294.472 320.39C293.412 320.39 292.412 320.185 291.472 319.775C290.532 319.365 289.707 318.8 288.997 318.08C288.287 317.35 287.732 316.51 287.332 315.56C286.932 314.61 286.732 313.59 286.732 312.5C286.732 311.41 286.932 310.39 287.332 309.44C287.732 308.48 288.287 307.64 288.997 306.92C289.707 306.19 290.532 305.62 291.472 305.21C292.412 304.8 293.412 304.595 294.472 304.595C295.492 304.595 296.387 304.83 297.157 305.3C297.927 305.76 298.557 306.375 299.047 307.145V305ZM294.502 317.375C295.372 317.375 296.132 317.155 296.782 316.715C297.432 316.265 297.937 315.67 298.297 314.93C298.657 314.19 298.837 313.38 298.837 312.5C298.837 311.6 298.652 310.785 298.282 310.055C297.922 309.315 297.417 308.725 296.767 308.285C296.117 307.835 295.362 307.61 294.502 307.61C293.662 307.61 292.892 307.83 292.192 308.27C291.502 308.71 290.952 309.3 290.542 310.04C290.132 310.78 289.927 311.6 289.927 312.5C289.927 313.4 290.132 314.22 290.542 314.96C290.962 315.7 291.517 316.29 292.207 316.73C292.907 317.16 293.672 317.375 294.502 317.375Z" fill="white"/>
<rect x="106" y="94" width="160" height="160" rx="80" fill="#FFEDD5"/>
<path fill-rule="evenodd" clip-rule="evenodd" d="M161.648 188.932C168.634 183.572 177.193 180.667 185.999 180.667C194.804 180.667 203.363 183.572 210.349 188.932C217.335 194.293 222.357 201.808 224.636 210.314C225.589 213.87 223.478 217.526 219.922 218.479C216.365 219.432 212.71 217.321 211.757 213.765C210.237 208.094 206.889 203.084 202.232 199.51C197.575 195.937 191.869 194 185.999 194C180.128 194 174.422 195.937 169.765 199.51C165.108 203.084 161.76 208.094 160.241 213.765C159.288 217.321 155.632 219.432 152.076 218.479C148.519 217.526 146.409 213.87 147.362 210.314C149.641 201.808 154.662 194.293 161.648 188.932Z" fill="#9A3412"/>
<path fill-rule="evenodd" clip-rule="evenodd" d="M146 140.667C149.682 140.667 152.667 143.651 152.667 147.333V167.333C152.667 171.015 149.682 174 146 174C142.318 174 139.333 171.015 139.333 167.333V147.333C139.333 143.651 142.318 140.667 146 140.667Z" fill="#9A3412"/>
<path fill-rule="evenodd" clip-rule="evenodd" d="M226 140.667C229.682 140.667 232.667 143.651 232.667 147.333V167.333C232.667 171.015 229.682 174 226 174C222.318 174 219.333 171.015 219.333 167.333V147.333C219.333 143.651 222.318 140.667 226 140.667Z" fill="#9A3412"/>
<path d="M32.731 396.851C75.4261 432.676 129.259 452.525 184.991 452.992C240.724 453.458 294.881 434.513 338.17 399.407" stroke="#E7590F" stroke-width="12"/>
<path d="M32.731 396.851C52.7075 413.613 75.1131 426.871 99 436.285" stroke="white" stroke-width="12"/>
<rect x="12" y="375" width="44" height="44" rx="22" fill="white"/>
<rect x="12" y="375" width="44" height="44" rx="22" stroke="#EF8834" stroke-width="8"/>
<circle cx="34" cy="397" r="4" fill="#EF8834"/>
<rect x="319" y="375" width="44" height="44" rx="22" fill="#E7590F"/>
<rect x="319" y="375" width="44" height="44" rx="22" stroke="#EF8834" stroke-width="8"/>
<circle cx="341" cy="397" r="4" fill="#EF8834"/>
<rect x="165" y="431" width="44" height="44" rx="22" fill="#E7590F"/>
<rect x="165" y="431" width="44" height="44" rx="22" stroke="#EF8834" stroke-width="8"/>
<circle cx="187" cy="453" r="4" fill="#EF8834"/>
<rect x="76" y="417" width="44" height="44" rx="22" fill="white"/>
<rect x="76" y="417" width="44" height="44" rx="22" stroke="#FDBA74" stroke-width="8"/>
<circle cx="98" cy="439" r="4" fill="#EF8834"/>
<rect x="254" y="417" width="44" height="44" rx="22" fill="#E7590F"/>
<rect x="254" y="417" width="44" height="44" rx="22" stroke="#EF8834" stroke-width="8"/>
<circle cx="276" cy="439" r="4" fill="#EF8834"/>
</svg>
