<svg width="375" height="505" viewBox="0 0 375 505" fill="none" xmlns="http://www.w3.org/2000/svg">
<rect width="375" height="505" rx="40" fill="#A688FD"/>
<rect x="121" y="492" width="134" height="5" rx="2.5" fill="white"/>
<rect x="107.5" y="108" width="160" height="160" rx="80" fill="#EDE9FE"/>
<path fill-rule="evenodd" clip-rule="evenodd" d="M209.453 149.953C212.056 147.349 216.277 147.349 218.881 149.953L238.881 169.953C241.484 172.556 241.484 176.777 238.881 179.381C236.277 181.984 232.056 181.984 229.453 179.381L209.453 159.381C206.849 156.777 206.849 152.556 209.453 149.953Z" fill="#5D2AAD"/>
<path fill-rule="evenodd" clip-rule="evenodd" d="M238.881 149.953C241.484 152.556 241.484 156.777 238.881 159.381L218.881 179.381C216.277 181.984 212.056 181.984 209.453 179.381C206.849 176.777 206.849 172.556 209.453 169.953L229.453 149.953C232.056 147.349 236.277 147.349 238.881 149.953Z" fill="#5D2AAD"/>
<path fill-rule="evenodd" clip-rule="evenodd" d="M136.119 149.953C138.723 147.349 142.944 147.349 145.547 149.953L165.547 169.953C168.151 172.556 168.151 176.777 165.547 179.381C162.944 181.984 158.723 181.984 156.119 179.381L136.119 159.381C133.516 156.777 133.516 152.556 136.119 149.953Z" fill="#5D2AAD"/>
<path fill-rule="evenodd" clip-rule="evenodd" d="M165.547 149.953C168.151 152.556 168.151 156.777 165.547 159.381L145.547 179.381C142.944 181.984 138.723 181.984 136.119 179.381C133.516 176.777 133.516 172.556 136.119 169.953L156.119 149.953C158.723 147.349 162.944 147.349 165.547 149.953Z" fill="#5D2AAD"/>
<path fill-rule="evenodd" clip-rule="evenodd" d="M163.148 202.932C170.134 197.572 178.693 194.667 187.499 194.667C196.304 194.667 204.863 197.572 211.849 202.932C218.835 208.293 223.857 215.808 226.136 224.314C227.089 227.87 224.978 231.526 221.422 232.479C217.865 233.432 214.21 231.321 213.257 227.765C211.737 222.094 208.389 217.084 203.732 213.51C199.075 209.937 193.369 208 187.499 208C181.628 208 175.922 209.937 171.265 213.51C166.608 217.084 163.26 222.094 161.741 227.765C160.788 231.321 157.132 233.432 153.576 232.479C150.019 231.526 147.909 227.87 148.862 224.314C151.141 215.808 156.162 208.293 163.148 202.932Z" fill="#5D2AAD"/>
<path d="M51.5871 315H54.7071V330H51.5871V315ZM53.1771 312.825C52.6971 312.825 52.2971 312.67 51.9771 312.36C51.6571 312.05 51.4971 311.66 51.4971 311.19C51.4971 310.73 51.6571 310.345 51.9771 310.035C52.2971 309.715 52.6921 309.555 53.1621 309.555C53.6221 309.555 54.0121 309.715 54.3321 310.035C54.6521 310.345 54.8121 310.73 54.8121 311.19C54.8121 311.66 54.6521 312.05 54.3321 312.36C54.0221 312.67 53.6371 312.825 53.1771 312.825ZM70.8797 330H67.2797L63.5897 323.64L61.1747 326.52V330H58.0547V307.5H61.1747V321.675L66.7547 315H70.8347L65.7197 321.105L70.8797 330ZM88.8277 330H84.8227L79.3477 314.97H82.6777L86.8177 326.4L90.9727 314.97H94.2877L88.8277 330ZM102.309 330.39C100.929 330.39 99.6694 330.035 98.5294 329.325C97.3994 328.615 96.4944 327.665 95.8144 326.475C95.1444 325.275 94.8094 323.95 94.8094 322.5C94.8094 321.4 95.0044 320.375 95.3944 319.425C95.7844 318.465 96.3194 317.625 96.9994 316.905C97.6894 316.175 98.4894 315.605 99.3994 315.195C100.309 314.785 101.279 314.58 102.309 314.58C103.689 314.58 104.944 314.935 106.074 315.645C107.214 316.355 108.119 317.31 108.789 318.51C109.469 319.71 109.809 321.04 109.809 322.5C109.809 323.59 109.614 324.61 109.224 325.56C108.834 326.51 108.294 327.35 107.604 328.08C106.924 328.8 106.129 329.365 105.219 329.775C104.319 330.185 103.349 330.39 102.309 330.39ZM102.309 327.27C103.139 327.27 103.884 327.05 104.544 326.61C105.204 326.17 105.724 325.59 106.104 324.87C106.494 324.14 106.689 323.35 106.689 322.5C106.689 321.63 106.489 320.83 106.089 320.1C105.699 319.37 105.174 318.79 104.514 318.36C103.854 317.92 103.119 317.7 102.309 317.7C101.489 317.7 100.744 317.92 100.074 318.36C99.4144 318.8 98.8894 319.385 98.4994 320.115C98.1194 320.845 97.9294 321.64 97.9294 322.5C97.9294 323.39 98.1294 324.195 98.5294 324.915C98.9294 325.635 99.4594 326.21 100.119 326.64C100.789 327.06 101.519 327.27 102.309 327.27ZM118.504 330.39C117.124 330.39 115.864 330.035 114.724 329.325C113.594 328.615 112.689 327.665 112.009 326.475C111.339 325.275 111.004 323.95 111.004 322.5C111.004 321.4 111.199 320.375 111.589 319.425C111.979 318.465 112.514 317.625 113.194 316.905C113.884 316.175 114.684 315.605 115.594 315.195C116.504 314.785 117.474 314.58 118.504 314.58C119.654 314.58 120.709 314.82 121.669 315.3C122.629 315.77 123.449 316.425 124.129 317.265C124.809 318.095 125.309 319.055 125.629 320.145C125.949 321.225 126.044 322.375 125.914 323.595H114.349C114.479 324.285 114.729 324.91 115.099 325.47C115.479 326.02 115.959 326.455 116.539 326.775C117.129 327.095 117.784 327.26 118.504 327.27C119.264 327.27 119.954 327.08 120.574 326.7C121.204 326.32 121.719 325.795 122.119 325.125L125.284 325.86C124.684 327.19 123.779 328.28 122.569 329.13C121.359 329.97 120.004 330.39 118.504 330.39ZM114.244 321.21H122.764C122.664 320.49 122.409 319.84 121.999 319.26C121.599 318.67 121.094 318.205 120.484 317.865C119.884 317.515 119.224 317.34 118.504 317.34C117.794 317.34 117.134 317.51 116.524 317.85C115.924 318.19 115.424 318.655 115.024 319.245C114.634 319.825 114.374 320.48 114.244 321.21ZM127.893 330V307.5H131.013V330H127.893ZM141.209 330V315H144.329V316.59C144.849 315.97 145.484 315.48 146.234 315.12C146.994 314.76 147.814 314.58 148.694 314.58C149.764 314.58 150.749 314.84 151.649 315.36C152.549 315.87 153.264 316.55 153.794 317.4C154.324 316.55 155.029 315.87 155.909 315.36C156.799 314.84 157.779 314.58 158.849 314.58C159.959 314.58 160.969 314.85 161.879 315.39C162.789 315.93 163.514 316.655 164.054 317.565C164.594 318.475 164.864 319.485 164.864 320.595V330H161.744V321.39C161.744 320.73 161.584 320.125 161.264 319.575C160.944 319.025 160.514 318.58 159.974 318.24C159.434 317.9 158.834 317.73 158.174 317.73C157.514 317.73 156.914 317.89 156.374 318.21C155.834 318.53 155.404 318.965 155.084 319.515C154.764 320.065 154.604 320.69 154.604 321.39V330H151.484V321.39C151.484 320.69 151.324 320.065 151.004 319.515C150.684 318.965 150.249 318.53 149.699 318.21C149.159 317.89 148.559 317.73 147.899 317.73C147.249 317.73 146.649 317.9 146.099 318.24C145.559 318.58 145.129 319.025 144.809 319.575C144.489 320.125 144.329 320.73 144.329 321.39V330H141.209ZM173.876 330.39C172.496 330.39 171.236 330.035 170.096 329.325C168.966 328.615 168.061 327.665 167.381 326.475C166.711 325.275 166.376 323.95 166.376 322.5C166.376 321.4 166.571 320.375 166.961 319.425C167.351 318.465 167.886 317.625 168.566 316.905C169.256 316.175 170.056 315.605 170.966 315.195C171.876 314.785 172.846 314.58 173.876 314.58C175.026 314.58 176.081 314.82 177.041 315.3C178.001 315.77 178.821 316.425 179.501 317.265C180.181 318.095 180.681 319.055 181.001 320.145C181.321 321.225 181.416 322.375 181.286 323.595H169.721C169.851 324.285 170.101 324.91 170.471 325.47C170.851 326.02 171.331 326.455 171.911 326.775C172.501 327.095 173.156 327.26 173.876 327.27C174.636 327.27 175.326 327.08 175.946 326.7C176.576 326.32 177.091 325.795 177.491 325.125L180.656 325.86C180.056 327.19 179.151 328.28 177.941 329.13C176.731 329.97 175.376 330.39 173.876 330.39ZM169.616 321.21H178.136C178.036 320.49 177.781 319.84 177.371 319.26C176.971 318.67 176.466 318.205 175.856 317.865C175.256 317.515 174.596 317.34 173.876 317.34C173.166 317.34 172.506 317.51 171.896 317.85C171.296 318.19 170.796 318.655 170.396 319.245C170.006 319.825 169.746 320.48 169.616 321.21ZM202.326 307.5H205.446V330H202.326V327.795C201.836 328.575 201.196 329.205 200.406 329.685C199.616 330.155 198.691 330.39 197.631 330.39C196.541 330.39 195.521 330.185 194.571 329.775C193.621 329.365 192.781 328.8 192.051 328.08C191.331 327.35 190.766 326.51 190.356 325.56C189.946 324.61 189.741 323.59 189.741 322.5C189.741 321.41 189.946 320.39 190.356 319.44C190.766 318.48 191.331 317.64 192.051 316.92C192.781 316.19 193.621 315.62 194.571 315.21C195.521 314.8 196.541 314.595 197.631 314.595C198.691 314.595 199.616 314.835 200.406 315.315C201.196 315.785 201.836 316.405 202.326 317.175V307.5ZM197.661 327.375C198.541 327.375 199.311 327.16 199.971 326.73C200.631 326.29 201.141 325.7 201.501 324.96C201.871 324.22 202.056 323.4 202.056 322.5C202.056 321.59 201.871 320.765 201.501 320.025C201.131 319.285 200.616 318.7 199.956 318.27C199.306 317.83 198.541 317.61 197.661 317.61C196.791 317.61 195.996 317.83 195.276 318.27C194.566 318.71 193.996 319.3 193.566 320.04C193.146 320.78 192.936 321.6 192.936 322.5C192.936 323.41 193.151 324.235 193.581 324.975C194.021 325.705 194.596 326.29 195.306 326.73C196.026 327.16 196.811 327.375 197.661 327.375ZM215.134 330.39C213.754 330.39 212.494 330.035 211.354 329.325C210.224 328.615 209.319 327.665 208.639 326.475C207.969 325.275 207.634 323.95 207.634 322.5C207.634 321.4 207.829 320.375 208.219 319.425C208.609 318.465 209.144 317.625 209.824 316.905C210.514 316.175 211.314 315.605 212.224 315.195C213.134 314.785 214.104 314.58 215.134 314.58C216.284 314.58 217.339 314.82 218.299 315.3C219.259 315.77 220.079 316.425 220.759 317.265C221.439 318.095 221.939 319.055 222.259 320.145C222.579 321.225 222.674 322.375 222.544 323.595H210.979C211.109 324.285 211.359 324.91 211.729 325.47C212.109 326.02 212.589 326.455 213.169 326.775C213.759 327.095 214.414 327.26 215.134 327.27C215.894 327.27 216.584 327.08 217.204 326.7C217.834 326.32 218.349 325.795 218.749 325.125L221.914 325.86C221.314 327.19 220.409 328.28 219.199 329.13C217.989 329.97 216.634 330.39 215.134 330.39ZM210.874 321.21H219.394C219.294 320.49 219.039 319.84 218.629 319.26C218.229 318.67 217.724 318.205 217.114 317.865C216.514 317.515 215.854 317.34 215.134 317.34C214.424 317.34 213.764 317.51 213.154 317.85C212.554 318.19 212.054 318.655 211.654 319.245C211.264 319.825 211.004 320.48 210.874 321.21ZM227.848 337.5H224.728V315H227.848V317.205C228.348 316.435 228.988 315.81 229.768 315.33C230.548 314.85 231.468 314.61 232.528 314.61C233.618 314.61 234.638 314.815 235.588 315.225C236.548 315.635 237.388 316.205 238.108 316.935C238.828 317.655 239.393 318.49 239.803 319.44C240.213 320.39 240.418 321.41 240.418 322.5C240.418 323.59 240.213 324.615 239.803 325.575C239.393 326.535 238.828 327.38 238.108 328.11C237.388 328.83 236.548 329.395 235.588 329.805C234.638 330.215 233.618 330.42 232.528 330.42C231.468 330.42 230.548 330.18 229.768 329.7C228.988 329.21 228.348 328.585 227.848 327.825V337.5ZM232.498 317.625C231.628 317.625 230.863 317.845 230.203 318.285C229.543 318.725 229.028 319.315 228.658 320.055C228.288 320.785 228.103 321.6 228.103 322.5C228.103 323.4 228.288 324.22 228.658 324.96C229.028 325.7 229.543 326.29 230.203 326.73C230.863 327.17 231.628 327.39 232.498 327.39C233.358 327.39 234.148 327.175 234.868 326.745C235.588 326.305 236.163 325.715 236.593 324.975C237.023 324.235 237.238 323.41 237.238 322.5C237.238 321.61 237.023 320.795 236.593 320.055C236.173 319.315 235.603 318.725 234.883 318.285C234.163 317.845 233.368 317.625 232.498 317.625ZM242.563 330V315H245.683V316.59C246.203 315.97 246.843 315.48 247.603 315.12C248.363 314.76 249.183 314.58 250.063 314.58C250.623 314.58 251.178 314.655 251.728 314.805L250.483 317.955C250.093 317.805 249.703 317.73 249.313 317.73C248.653 317.73 248.048 317.895 247.498 318.225C246.948 318.545 246.508 318.98 246.178 319.53C245.848 320.08 245.683 320.69 245.683 321.36V330H242.563ZM259.058 330.39C257.678 330.39 256.418 330.035 255.278 329.325C254.148 328.615 253.243 327.665 252.563 326.475C251.893 325.275 251.558 323.95 251.558 322.5C251.558 321.4 251.753 320.375 252.143 319.425C252.533 318.465 253.068 317.625 253.748 316.905C254.438 316.175 255.238 315.605 256.148 315.195C257.058 314.785 258.028 314.58 259.058 314.58C260.208 314.58 261.263 314.82 262.223 315.3C263.183 315.77 264.003 316.425 264.683 317.265C265.363 318.095 265.863 319.055 266.183 320.145C266.503 321.225 266.598 322.375 266.468 323.595H254.903C255.033 324.285 255.283 324.91 255.653 325.47C256.033 326.02 256.513 326.455 257.093 326.775C257.683 327.095 258.338 327.26 259.058 327.27C259.818 327.27 260.508 327.08 261.128 326.7C261.758 326.32 262.273 325.795 262.673 325.125L265.838 325.86C265.238 327.19 264.333 328.28 263.123 329.13C261.913 329.97 260.558 330.39 259.058 330.39ZM254.798 321.21H263.318C263.218 320.49 262.963 319.84 262.553 319.26C262.153 318.67 261.648 318.205 261.038 317.865C260.438 317.515 259.778 317.34 259.058 317.34C258.348 317.34 257.688 317.51 257.078 317.85C256.478 318.19 255.978 318.655 255.578 319.245C255.188 319.825 254.928 320.48 254.798 321.21ZM273.211 330.285C272.421 330.235 271.651 330.075 270.901 329.805C270.151 329.535 269.491 329.17 268.921 328.71C268.361 328.24 267.941 327.69 267.661 327.06L270.316 325.92C270.446 326.19 270.671 326.455 270.991 326.715C271.321 326.975 271.706 327.19 272.146 327.36C272.586 327.52 273.046 327.6 273.526 327.6C273.996 327.6 274.431 327.535 274.831 327.405C275.241 327.265 275.576 327.055 275.836 326.775C276.096 326.495 276.226 326.16 276.226 325.77C276.226 325.33 276.076 324.99 275.776 324.75C275.486 324.5 275.121 324.31 274.681 324.18C274.241 324.05 273.801 323.925 273.361 323.805C272.381 323.585 271.481 323.285 270.661 322.905C269.851 322.515 269.206 322.02 268.726 321.42C268.246 320.81 268.006 320.065 268.006 319.185C268.006 318.225 268.266 317.395 268.786 316.695C269.306 315.985 269.986 315.44 270.826 315.06C271.676 314.68 272.581 314.49 273.541 314.49C274.741 314.49 275.841 314.745 276.841 315.255C277.841 315.765 278.606 316.465 279.136 317.355L276.661 318.825C276.511 318.525 276.286 318.255 275.986 318.015C275.686 317.775 275.346 317.585 274.966 317.445C274.586 317.295 274.191 317.21 273.781 317.19C273.271 317.17 272.796 317.23 272.356 317.37C271.926 317.5 271.581 317.71 271.321 318C271.061 318.29 270.931 318.66 270.931 319.11C270.931 319.55 271.086 319.88 271.396 320.1C271.706 320.31 272.096 320.48 272.566 320.61C273.046 320.74 273.536 320.885 274.036 321.045C274.926 321.325 275.761 321.67 276.541 322.08C277.321 322.48 277.951 322.975 278.431 323.565C278.911 324.155 279.141 324.875 279.121 325.725C279.121 326.665 278.836 327.49 278.266 328.2C277.706 328.91 276.976 329.45 276.076 329.82C275.176 330.19 274.221 330.345 273.211 330.285ZM285.889 330.285C285.099 330.235 284.329 330.075 283.579 329.805C282.829 329.535 282.169 329.17 281.599 328.71C281.039 328.24 280.619 327.69 280.339 327.06L282.994 325.92C283.124 326.19 283.349 326.455 283.669 326.715C283.999 326.975 284.384 327.19 284.824 327.36C285.264 327.52 285.724 327.6 286.204 327.6C286.674 327.6 287.109 327.535 287.509 327.405C287.919 327.265 288.254 327.055 288.514 326.775C288.774 326.495 288.904 326.16 288.904 325.77C288.904 325.33 288.754 324.99 288.454 324.75C288.164 324.5 287.799 324.31 287.359 324.18C286.919 324.05 286.479 323.925 286.039 323.805C285.059 323.585 284.159 323.285 283.339 322.905C282.529 322.515 281.884 322.02 281.404 321.42C280.924 320.81 280.684 320.065 280.684 319.185C280.684 318.225 280.944 317.395 281.464 316.695C281.984 315.985 282.664 315.44 283.504 315.06C284.354 314.68 285.259 314.49 286.219 314.49C287.419 314.49 288.519 314.745 289.519 315.255C290.519 315.765 291.284 316.465 291.814 317.355L289.339 318.825C289.189 318.525 288.964 318.255 288.664 318.015C288.364 317.775 288.024 317.585 287.644 317.445C287.264 317.295 286.869 317.21 286.459 317.19C285.949 317.17 285.474 317.23 285.034 317.37C284.604 317.5 284.259 317.71 283.999 318C283.739 318.29 283.609 318.66 283.609 319.11C283.609 319.55 283.764 319.88 284.074 320.1C284.384 320.31 284.774 320.48 285.244 320.61C285.724 320.74 286.214 320.885 286.714 321.045C287.604 321.325 288.439 321.67 289.219 322.08C289.999 322.48 290.629 322.975 291.109 323.565C291.589 324.155 291.819 324.875 291.799 325.725C291.799 326.665 291.514 327.49 290.944 328.2C290.384 328.91 289.654 329.45 288.754 329.82C287.854 330.19 286.899 330.345 285.889 330.285ZM293.804 315H296.924V330H293.804V315ZM295.394 312.825C294.914 312.825 294.514 312.67 294.194 312.36C293.874 312.05 293.714 311.66 293.714 311.19C293.714 310.73 293.874 310.345 294.194 310.035C294.514 309.715 294.909 309.555 295.379 309.555C295.839 309.555 296.229 309.715 296.549 310.035C296.869 310.345 297.029 310.73 297.029 311.19C297.029 311.66 296.869 312.05 296.549 312.36C296.239 312.67 295.854 312.825 295.394 312.825ZM306.55 330.39C305.17 330.39 303.91 330.035 302.77 329.325C301.64 328.615 300.735 327.665 300.055 326.475C299.385 325.275 299.05 323.95 299.05 322.5C299.05 321.4 299.245 320.375 299.635 319.425C300.025 318.465 300.56 317.625 301.24 316.905C301.93 316.175 302.73 315.605 303.64 315.195C304.55 314.785 305.52 314.58 306.55 314.58C307.7 314.58 308.755 314.82 309.715 315.3C310.675 315.77 311.495 316.425 312.175 317.265C312.855 318.095 313.355 319.055 313.675 320.145C313.995 321.225 314.09 322.375 313.96 323.595H302.395C302.525 324.285 302.775 324.91 303.145 325.47C303.525 326.02 304.005 326.455 304.585 326.775C305.175 327.095 305.83 327.26 306.55 327.27C307.31 327.27 308 327.08 308.62 326.7C309.25 326.32 309.765 325.795 310.165 325.125L313.33 325.86C312.73 327.19 311.825 328.28 310.615 329.13C309.405 329.97 308.05 330.39 306.55 330.39ZM302.29 321.21H310.81C310.71 320.49 310.455 319.84 310.045 319.26C309.645 318.67 309.14 318.205 308.53 317.865C307.93 317.515 307.27 317.34 306.55 317.34C305.84 317.34 305.18 317.51 304.57 317.85C303.97 318.19 303.47 318.655 303.07 319.245C302.68 319.825 302.42 320.48 302.29 321.21ZM320.262 311.595V315H324.492V318.12H320.262V330H317.142V318.12H315.357V315H317.142V311.595C317.142 310.775 317.342 310.03 317.742 309.36C318.142 308.68 318.677 308.14 319.347 307.74C320.027 307.34 320.782 307.14 321.612 307.14C322.212 307.14 322.797 307.26 323.367 307.5C323.937 307.74 324.447 308.11 324.897 308.61L322.662 310.815C322.552 310.635 322.397 310.5 322.197 310.41C322.007 310.31 321.812 310.26 321.612 310.26C321.242 310.26 320.922 310.39 320.652 310.65C320.392 310.91 320.262 311.225 320.262 311.595Z" fill="white"/>
<path d="M32.731 403.851C75.4261 439.676 129.259 459.525 184.991 459.992C240.724 460.458 294.881 441.513 338.17 406.407" stroke="#8B5CF6" stroke-width="12"/>
<rect x="12" y="382" width="44" height="44" rx="22" fill="white"/>
<rect x="12" y="382" width="44" height="44" rx="22" stroke="#C4B5FD" stroke-width="8"/>
<circle cx="34" cy="404" r="4" fill="#C4B5FD"/>
<rect x="319" y="382" width="44" height="44" rx="22" fill="#8B5CF6"/>
<rect x="319" y="382" width="44" height="44" rx="22" stroke="#A688FD" stroke-width="8"/>
<circle cx="341" cy="404" r="4" fill="#C4B5FD"/>
<rect x="165" y="438" width="44" height="44" rx="22" fill="#8B5CF6"/>
<rect x="165" y="438" width="44" height="44" rx="22" stroke="#A688FD" stroke-width="8"/>
<circle cx="187" cy="460" r="4" fill="#C4B5FD"/>
<rect x="76" y="424" width="44" height="44" rx="22" fill="#8B5CF6"/>
<rect x="76" y="424" width="44" height="44" rx="22" stroke="#A688FD" stroke-width="8"/>
<circle cx="98" cy="446" r="4" fill="#C4B5FD"/>
<rect x="254" y="424" width="44" height="44" rx="22" fill="#8B5CF6"/>
<rect x="254" y="424" width="44" height="44" rx="22" stroke="#A688FD" stroke-width="8"/>
<circle cx="276" cy="446" r="4" fill="#C4B5FD"/>
</svg>
