<svg width="375" height="505" viewBox="0 0 375 505" fill="none" xmlns="http://www.w3.org/2000/svg">
<rect width="375" height="505" rx="40" fill="#FACC15"/>
<rect x="121" y="492" width="134" height="5" rx="2.5" fill="white"/>
<rect x="107.5" y="108" width="160" height="160" rx="80" fill="#F9F5C8"/>
<path fill-rule="evenodd" clip-rule="evenodd" d="M227.5 154.667C231.182 154.667 234.167 157.651 234.167 161.333L234.167 181.333C234.167 185.015 231.182 188 227.5 188C223.818 188 220.833 185.015 220.833 181.333L220.833 161.333C220.833 157.651 223.818 154.667 227.5 154.667Z" fill="#854D0E"/>
<path fill-rule="evenodd" clip-rule="evenodd" d="M147.5 154.667C151.182 154.667 154.167 157.651 154.167 161.333L154.167 181.333C154.167 185.015 151.182 188 147.5 188C143.818 188 140.833 185.015 140.833 181.333L140.833 161.333C140.833 157.651 143.818 154.667 147.5 154.667Z" fill="#854D0E"/>
<path fill-rule="evenodd" clip-rule="evenodd" d="M221.423 203.522C224.98 204.475 227.09 208.13 226.137 211.687C223.858 220.192 218.836 227.708 211.851 233.068C204.865 238.428 196.306 241.334 187.5 241.334C178.695 241.334 170.135 238.428 163.15 233.068C156.164 227.708 151.142 220.192 148.863 211.687C147.91 208.13 150.021 204.475 153.577 203.522C157.134 202.569 160.789 204.679 161.742 208.236C163.261 213.906 166.609 218.917 171.266 222.49C175.924 226.064 181.63 228.001 187.5 228.001C193.37 228.001 199.077 226.064 203.734 222.49C208.391 218.916 211.739 213.906 213.258 208.236C214.211 204.679 217.867 202.569 221.423 203.522Z" fill="#854D0E"/>
<path d="M64.7156 330V309H67.8356V330H64.7156ZM84.4078 330H80.8078L77.1178 323.64L74.7028 326.52V330H71.5828V307.5H74.7028V321.675L80.2828 315H84.3628L79.2478 321.105L84.4078 330ZM102.356 330H98.3508L92.8758 314.97H96.2058L100.346 326.4L104.501 314.97H107.816L102.356 330ZM115.837 330.39C114.457 330.39 113.197 330.035 112.057 329.325C110.927 328.615 110.022 327.665 109.342 326.475C108.672 325.275 108.337 323.95 108.337 322.5C108.337 321.4 108.532 320.375 108.922 319.425C109.312 318.465 109.847 317.625 110.527 316.905C111.217 316.175 112.017 315.605 112.927 315.195C113.837 314.785 114.807 314.58 115.837 314.58C117.217 314.58 118.472 314.935 119.602 315.645C120.742 316.355 121.647 317.31 122.317 318.51C122.997 319.71 123.337 321.04 123.337 322.5C123.337 323.59 123.142 324.61 122.752 325.56C122.362 326.51 121.822 327.35 121.132 328.08C120.452 328.8 119.657 329.365 118.747 329.775C117.847 330.185 116.877 330.39 115.837 330.39ZM115.837 327.27C116.667 327.27 117.412 327.05 118.072 326.61C118.732 326.17 119.252 325.59 119.632 324.87C120.022 324.14 120.217 323.35 120.217 322.5C120.217 321.63 120.017 320.83 119.617 320.1C119.227 319.37 118.702 318.79 118.042 318.36C117.382 317.92 116.647 317.7 115.837 317.7C115.017 317.7 114.272 317.92 113.602 318.36C112.942 318.8 112.417 319.385 112.027 320.115C111.647 320.845 111.457 321.64 111.457 322.5C111.457 323.39 111.657 324.195 112.057 324.915C112.457 325.635 112.987 326.21 113.647 326.64C114.317 327.06 115.047 327.27 115.837 327.27ZM132.032 330.39C130.652 330.39 129.392 330.035 128.252 329.325C127.122 328.615 126.217 327.665 125.537 326.475C124.867 325.275 124.532 323.95 124.532 322.5C124.532 321.4 124.727 320.375 125.117 319.425C125.507 318.465 126.042 317.625 126.722 316.905C127.412 316.175 128.212 315.605 129.122 315.195C130.032 314.785 131.002 314.58 132.032 314.58C133.182 314.58 134.237 314.82 135.197 315.3C136.157 315.77 136.977 316.425 137.657 317.265C138.337 318.095 138.837 319.055 139.157 320.145C139.477 321.225 139.572 322.375 139.442 323.595H127.877C128.007 324.285 128.257 324.91 128.627 325.47C129.007 326.02 129.487 326.455 130.067 326.775C130.657 327.095 131.312 327.26 132.032 327.27C132.792 327.27 133.482 327.08 134.102 326.7C134.732 326.32 135.247 325.795 135.647 325.125L138.812 325.86C138.212 327.19 137.307 328.28 136.097 329.13C134.887 329.97 133.532 330.39 132.032 330.39ZM127.772 321.21H136.292C136.192 320.49 135.937 319.84 135.527 319.26C135.127 318.67 134.622 318.205 134.012 317.865C133.412 317.515 132.752 317.34 132.032 317.34C131.322 317.34 130.662 317.51 130.052 317.85C129.452 318.19 128.952 318.655 128.552 319.245C128.162 319.825 127.902 320.48 127.772 321.21ZM141.421 330V307.5H144.541V330H141.421ZM154.737 330V315H157.857V316.59C158.377 315.97 159.012 315.48 159.762 315.12C160.522 314.76 161.342 314.58 162.222 314.58C163.292 314.58 164.277 314.84 165.177 315.36C166.077 315.87 166.792 316.55 167.322 317.4C167.852 316.55 168.557 315.87 169.437 315.36C170.327 314.84 171.307 314.58 172.377 314.58C173.487 314.58 174.497 314.85 175.407 315.39C176.317 315.93 177.042 316.655 177.582 317.565C178.122 318.475 178.392 319.485 178.392 320.595V330H175.272V321.39C175.272 320.73 175.112 320.125 174.792 319.575C174.472 319.025 174.042 318.58 173.502 318.24C172.962 317.9 172.362 317.73 171.702 317.73C171.042 317.73 170.442 317.89 169.902 318.21C169.362 318.53 168.932 318.965 168.612 319.515C168.292 320.065 168.132 320.69 168.132 321.39V330H165.012V321.39C165.012 320.69 164.852 320.065 164.532 319.515C164.212 318.965 163.777 318.53 163.227 318.21C162.687 317.89 162.087 317.73 161.427 317.73C160.777 317.73 160.177 317.9 159.627 318.24C159.087 318.58 158.657 319.025 158.337 319.575C158.017 320.125 157.857 320.73 157.857 321.39V330H154.737ZM187.404 330.39C186.024 330.39 184.764 330.035 183.624 329.325C182.494 328.615 181.589 327.665 180.909 326.475C180.239 325.275 179.904 323.95 179.904 322.5C179.904 321.4 180.099 320.375 180.489 319.425C180.879 318.465 181.414 317.625 182.094 316.905C182.784 316.175 183.584 315.605 184.494 315.195C185.404 314.785 186.374 314.58 187.404 314.58C188.554 314.58 189.609 314.82 190.569 315.3C191.529 315.77 192.349 316.425 193.029 317.265C193.709 318.095 194.209 319.055 194.529 320.145C194.849 321.225 194.944 322.375 194.814 323.595H183.249C183.379 324.285 183.629 324.91 183.999 325.47C184.379 326.02 184.859 326.455 185.439 326.775C186.029 327.095 186.684 327.26 187.404 327.27C188.164 327.27 188.854 327.08 189.474 326.7C190.104 326.32 190.619 325.795 191.019 325.125L194.184 325.86C193.584 327.19 192.679 328.28 191.469 329.13C190.259 329.97 188.904 330.39 187.404 330.39ZM183.144 321.21H191.664C191.564 320.49 191.309 319.84 190.899 319.26C190.499 318.67 189.994 318.205 189.384 317.865C188.784 317.515 188.124 317.34 187.404 317.34C186.694 317.34 186.034 317.51 185.424 317.85C184.824 318.19 184.324 318.655 183.924 319.245C183.534 319.825 183.274 320.48 183.144 321.21ZM215.584 315H218.704V330.39C218.704 331.42 218.484 332.37 218.044 333.24C217.614 334.11 217.029 334.86 216.289 335.49C215.549 336.13 214.699 336.625 213.739 336.975C212.789 337.325 211.794 337.5 210.754 337.5C209.704 337.5 208.694 337.275 207.724 336.825C206.754 336.385 205.899 335.785 205.159 335.025C204.429 334.265 203.884 333.405 203.524 332.445L206.389 331.155C206.589 331.775 206.909 332.325 207.349 332.805C207.799 333.285 208.319 333.665 208.909 333.945C209.509 334.225 210.124 334.365 210.754 334.365C211.374 334.365 211.969 334.265 212.539 334.065C213.119 333.875 213.634 333.605 214.084 333.255C214.544 332.905 214.909 332.485 215.179 331.995C215.449 331.505 215.584 330.97 215.584 330.39V327.855C215.094 328.615 214.464 329.23 213.694 329.7C212.924 330.16 212.029 330.39 211.009 330.39C209.949 330.39 208.949 330.185 208.009 329.775C207.069 329.365 206.244 328.8 205.534 328.08C204.824 327.35 204.269 326.51 203.869 325.56C203.469 324.61 203.269 323.59 203.269 322.5C203.269 321.41 203.469 320.39 203.869 319.44C204.269 318.48 204.824 317.64 205.534 316.92C206.244 316.19 207.069 315.62 208.009 315.21C208.949 314.8 209.949 314.595 211.009 314.595C212.029 314.595 212.924 314.83 213.694 315.3C214.464 315.76 215.094 316.375 215.584 317.145V315ZM211.039 327.375C211.909 327.375 212.669 327.155 213.319 326.715C213.969 326.265 214.474 325.67 214.834 324.93C215.194 324.19 215.374 323.38 215.374 322.5C215.374 321.6 215.189 320.785 214.819 320.055C214.459 319.315 213.954 318.725 213.304 318.285C212.654 317.835 211.899 317.61 211.039 317.61C210.199 317.61 209.429 317.83 208.729 318.27C208.039 318.71 207.489 319.3 207.079 320.04C206.669 320.78 206.464 321.6 206.464 322.5C206.464 323.4 206.669 324.22 207.079 324.96C207.499 325.7 208.054 326.29 208.744 326.73C209.444 327.16 210.209 327.375 211.039 327.375ZM228.34 330.39C226.96 330.39 225.7 330.035 224.56 329.325C223.43 328.615 222.525 327.665 221.845 326.475C221.175 325.275 220.84 323.95 220.84 322.5C220.84 321.4 221.035 320.375 221.425 319.425C221.815 318.465 222.35 317.625 223.03 316.905C223.72 316.175 224.52 315.605 225.43 315.195C226.34 314.785 227.31 314.58 228.34 314.58C229.49 314.58 230.545 314.82 231.505 315.3C232.465 315.77 233.285 316.425 233.965 317.265C234.645 318.095 235.145 319.055 235.465 320.145C235.785 321.225 235.88 322.375 235.75 323.595H224.185C224.315 324.285 224.565 324.91 224.935 325.47C225.315 326.02 225.795 326.455 226.375 326.775C226.965 327.095 227.62 327.26 228.34 327.27C229.1 327.27 229.79 327.08 230.41 326.7C231.04 326.32 231.555 325.795 231.955 325.125L235.12 325.86C234.52 327.19 233.615 328.28 232.405 329.13C231.195 329.97 229.84 330.39 228.34 330.39ZM224.08 321.21H232.6C232.5 320.49 232.245 319.84 231.835 319.26C231.435 318.67 230.93 318.205 230.32 317.865C229.72 317.515 229.06 317.34 228.34 317.34C227.63 317.34 226.97 317.51 226.36 317.85C225.76 318.19 225.26 318.655 224.86 319.245C224.47 319.825 224.21 320.48 224.08 321.21ZM237.729 330V307.5H240.849V330H237.729ZM243.538 324.375V315H246.658V323.61C246.658 324.28 246.823 324.89 247.153 325.44C247.483 325.99 247.923 326.43 248.473 326.76C249.023 327.08 249.628 327.24 250.288 327.24C250.958 327.24 251.563 327.08 252.103 326.76C252.653 326.43 253.088 325.99 253.408 325.44C253.738 324.89 253.903 324.28 253.903 323.61V315H257.023L257.038 330H253.918L253.903 328.38C253.393 329 252.758 329.49 251.998 329.85C251.238 330.21 250.423 330.39 249.553 330.39C248.443 330.39 247.433 330.12 246.523 329.58C245.613 329.04 244.888 328.315 244.348 327.405C243.808 326.495 243.538 325.485 243.538 324.375ZM272.688 330H269.088L265.398 323.64L262.983 326.52V330H259.863V307.5H262.983V321.675L268.563 315H272.643L267.528 321.105L272.688 330ZM287.974 330H284.374L280.684 323.64L278.269 326.52V330H275.149V307.5H278.269V321.675L283.849 315H287.929L282.814 321.105L287.974 330ZM290.054 315H293.174V330H290.054V315ZM291.644 312.825C291.164 312.825 290.764 312.67 290.444 312.36C290.124 312.05 289.964 311.66 289.964 311.19C289.964 310.73 290.124 310.345 290.444 310.035C290.764 309.715 291.159 309.555 291.629 309.555C292.089 309.555 292.479 309.715 292.799 310.035C293.119 310.345 293.279 310.73 293.279 311.19C293.279 311.66 293.119 312.05 292.799 312.36C292.489 312.67 292.104 312.825 291.644 312.825ZM307.615 315H310.735V330.39C310.735 331.42 310.515 332.37 310.075 333.24C309.645 334.11 309.06 334.86 308.32 335.49C307.58 336.13 306.73 336.625 305.77 336.975C304.82 337.325 303.825 337.5 302.785 337.5C301.735 337.5 300.725 337.275 299.755 336.825C298.785 336.385 297.93 335.785 297.19 335.025C296.46 334.265 295.915 333.405 295.555 332.445L298.42 331.155C298.62 331.775 298.94 332.325 299.38 332.805C299.83 333.285 300.35 333.665 300.94 333.945C301.54 334.225 302.155 334.365 302.785 334.365C303.405 334.365 304 334.265 304.57 334.065C305.15 333.875 305.665 333.605 306.115 333.255C306.575 332.905 306.94 332.485 307.21 331.995C307.48 331.505 307.615 330.97 307.615 330.39V327.855C307.125 328.615 306.495 329.23 305.725 329.7C304.955 330.16 304.06 330.39 303.04 330.39C301.98 330.39 300.98 330.185 300.04 329.775C299.1 329.365 298.275 328.8 297.565 328.08C296.855 327.35 296.3 326.51 295.9 325.56C295.5 324.61 295.3 323.59 295.3 322.5C295.3 321.41 295.5 320.39 295.9 319.44C296.3 318.48 296.855 317.64 297.565 316.92C298.275 316.19 299.1 315.62 300.04 315.21C300.98 314.8 301.98 314.595 303.04 314.595C304.06 314.595 304.955 314.83 305.725 315.3C306.495 315.76 307.125 316.375 307.615 317.145V315ZM303.07 327.375C303.94 327.375 304.7 327.155 305.35 326.715C306 326.265 306.505 325.67 306.865 324.93C307.225 324.19 307.405 323.38 307.405 322.5C307.405 321.6 307.22 320.785 306.85 320.055C306.49 319.315 305.985 318.725 305.335 318.285C304.685 317.835 303.93 317.61 303.07 317.61C302.23 317.61 301.46 317.83 300.76 318.27C300.07 318.71 299.52 319.3 299.11 320.04C298.7 320.78 298.495 321.6 298.495 322.5C298.495 323.4 298.7 324.22 299.11 324.96C299.53 325.7 300.085 326.29 300.775 326.73C301.475 327.16 302.24 327.375 303.07 327.375Z" fill="white"/>
<path d="M32.731 395.851C75.4261 431.676 129.259 451.525 184.991 451.992C240.724 452.458 294.881 433.513 338.17 398.407" stroke="#CA8A04" stroke-width="12"/>
<path d="M32.731 395.851C75.4261 431.676 129.259 451.525 184.991 451.992C215.817 452.25 246.162 446.569 274.451 435.5" stroke="white" stroke-width="12"/>
<rect x="12" y="374" width="44" height="44" rx="22" fill="white"/>
<rect x="12" y="374" width="44" height="44" rx="22" stroke="#FACC15" stroke-width="8"/>
<circle cx="34" cy="396" r="4" fill="#FACC15"/>
<rect x="319" y="374" width="44" height="44" rx="22" fill="#CA8A04"/>
<rect x="319" y="374" width="44" height="44" rx="22" stroke="#FACC15" stroke-width="8"/>
<circle cx="341" cy="396" r="4" fill="#FACC15"/>
<rect x="165" y="430" width="44" height="44" rx="22" fill="white"/>
<rect x="165" y="430" width="44" height="44" rx="22" stroke="#FACC15" stroke-width="8"/>
<circle cx="187" cy="452" r="4" fill="#FACC15"/>
<rect x="76" y="416" width="44" height="44" rx="22" fill="white"/>
<rect x="76" y="416" width="44" height="44" rx="22" stroke="#FACC15" stroke-width="8"/>
<circle cx="98" cy="438" r="4" fill="#FACC15"/>
<rect x="254" y="416" width="44" height="44" rx="22" fill="white"/>
<rect x="254" y="416" width="44" height="44" rx="22" stroke="#FADE4A" stroke-width="8"/>
<circle cx="276" cy="438" r="4" fill="#FACC15"/>
</svg>
