<svg width="375" height="497" viewBox="0 0 375 497" fill="none" xmlns="http://www.w3.org/2000/svg">
<g clip-path="url(#clip0_1077_64532)">
<rect width="375" height="497" rx="40" fill="#9BB167"/>
<rect x="121" y="484" width="134" height="5" rx="2.5" fill="white"/>
<rect x="107.5" y="111.5" width="160" height="160" rx="80" fill="#CFD9B5"/>
<path fill-rule="evenodd" clip-rule="evenodd" d="M213.18 166.356C215.606 165.351 218.207 164.833 220.833 164.833C223.46 164.833 226.061 165.351 228.487 166.356C230.914 167.361 233.118 168.834 234.976 170.691C236.833 172.549 238.306 174.753 239.311 177.18C240.316 179.606 240.833 182.207 240.833 184.833C240.833 188.515 237.849 191.5 234.167 191.5C230.485 191.5 227.5 188.515 227.5 184.833C227.5 183.958 227.328 183.091 226.993 182.282C226.658 181.473 226.167 180.739 225.548 180.119C224.928 179.5 224.194 179.009 223.385 178.674C222.576 178.339 221.709 178.167 220.833 178.167C219.958 178.167 219.091 178.339 218.282 178.674C217.473 179.009 216.739 179.5 216.119 180.119C215.5 180.739 215.009 181.473 214.674 182.282C214.339 183.091 214.167 183.958 214.167 184.833C214.167 188.515 211.182 191.5 207.5 191.5C203.818 191.5 200.833 188.515 200.833 184.833C200.833 182.207 201.351 179.606 202.356 177.18C203.361 174.753 204.834 172.549 206.691 170.691C208.549 168.834 210.753 167.361 213.18 166.356Z" fill="#3D4A26"/>
<path fill-rule="evenodd" clip-rule="evenodd" d="M221.422 207.022C224.978 207.975 227.089 211.63 226.136 215.187C223.857 223.692 218.835 231.208 211.849 236.568C204.863 241.928 196.304 244.834 187.499 244.834C178.693 244.834 170.134 241.928 163.148 236.568C156.162 231.208 151.141 223.692 148.862 215.187C147.909 211.63 150.019 207.975 153.576 207.022C157.132 206.069 160.788 208.179 161.741 211.736C163.26 217.406 166.608 222.417 171.265 225.99C175.922 229.564 181.628 231.501 187.499 231.501C193.369 231.501 199.075 229.564 203.732 225.99C208.389 222.416 211.737 217.406 213.257 211.736C214.21 208.179 217.865 206.069 221.422 207.022Z" fill="#3D4A26"/>
<path fill-rule="evenodd" clip-rule="evenodd" d="M146.513 166.356C148.939 165.351 151.54 164.833 154.167 164.833C156.793 164.833 159.394 165.351 161.82 166.356C164.247 167.361 166.451 168.834 168.309 170.691C170.166 172.549 171.639 174.753 172.644 177.18C173.649 179.606 174.167 182.207 174.167 184.833C174.167 188.515 171.182 191.5 167.5 191.5C163.818 191.5 160.833 188.515 160.833 184.833C160.833 183.958 160.661 183.091 160.326 182.282C159.991 181.473 159.5 180.739 158.881 180.119C158.261 179.5 157.527 179.009 156.718 178.674C155.909 178.339 155.042 178.167 154.167 178.167C153.291 178.167 152.424 178.339 151.615 178.674C150.806 179.009 150.072 179.5 149.452 180.119C148.833 180.739 148.342 181.473 148.007 182.282C147.672 183.091 147.5 183.958 147.5 184.833C147.5 188.515 144.515 191.5 140.833 191.5C137.151 191.5 134.167 188.515 134.167 184.833C134.167 182.207 134.684 179.606 135.689 177.18C136.694 174.753 138.167 172.549 140.024 170.691C141.882 168.834 144.086 167.361 146.513 166.356Z" fill="#3D4A26"/>
<path d="M44.6326 318.5H47.7526V333.5H44.6326V318.5ZM46.2226 316.325C45.7426 316.325 45.3426 316.17 45.0226 315.86C44.7026 315.55 44.5426 315.16 44.5426 314.69C44.5426 314.23 44.7026 313.845 45.0226 313.535C45.3426 313.215 45.7376 313.055 46.2076 313.055C46.6676 313.055 47.0576 313.215 47.3776 313.535C47.6976 313.845 47.8576 314.23 47.8576 314.69C47.8576 315.16 47.6976 315.55 47.3776 315.86C47.0676 316.17 46.6826 316.325 46.2226 316.325ZM63.9252 333.5H60.3252L56.6352 327.14L54.2202 330.02V333.5H51.1002V311H54.2202V325.175L59.8002 318.5H63.8802L58.7652 324.605L63.9252 333.5ZM81.8732 333.5H77.8682L72.3932 318.47H75.7232L79.8632 329.9L84.0182 318.47H87.3332L81.8732 333.5ZM95.3549 333.89C93.9749 333.89 92.7149 333.535 91.5749 332.825C90.4449 332.115 89.5399 331.165 88.8599 329.975C88.1899 328.775 87.8549 327.45 87.8549 326C87.8549 324.9 88.0499 323.875 88.4399 322.925C88.8299 321.965 89.3649 321.125 90.0449 320.405C90.7349 319.675 91.5349 319.105 92.4449 318.695C93.3549 318.285 94.3249 318.08 95.3549 318.08C96.7349 318.08 97.9899 318.435 99.1199 319.145C100.26 319.855 101.165 320.81 101.835 322.01C102.515 323.21 102.855 324.54 102.855 326C102.855 327.09 102.66 328.11 102.27 329.06C101.88 330.01 101.34 330.85 100.65 331.58C99.9699 332.3 99.1749 332.865 98.2649 333.275C97.3649 333.685 96.3949 333.89 95.3549 333.89ZM95.3549 330.77C96.1849 330.77 96.9299 330.55 97.5899 330.11C98.2499 329.67 98.7699 329.09 99.1499 328.37C99.5399 327.64 99.7349 326.85 99.7349 326C99.7349 325.13 99.5349 324.33 99.1349 323.6C98.7449 322.87 98.2199 322.29 97.5599 321.86C96.8999 321.42 96.1649 321.2 95.3549 321.2C94.5349 321.2 93.7899 321.42 93.1199 321.86C92.4599 322.3 91.9349 322.885 91.5449 323.615C91.1649 324.345 90.9749 325.14 90.9749 326C90.9749 326.89 91.1749 327.695 91.5749 328.415C91.9749 329.135 92.5049 329.71 93.1649 330.14C93.8349 330.56 94.5649 330.77 95.3549 330.77ZM111.549 333.89C110.169 333.89 108.909 333.535 107.769 332.825C106.639 332.115 105.734 331.165 105.054 329.975C104.384 328.775 104.049 327.45 104.049 326C104.049 324.9 104.244 323.875 104.634 322.925C105.024 321.965 105.559 321.125 106.239 320.405C106.929 319.675 107.729 319.105 108.639 318.695C109.549 318.285 110.519 318.08 111.549 318.08C112.699 318.08 113.754 318.32 114.714 318.8C115.674 319.27 116.494 319.925 117.174 320.765C117.854 321.595 118.354 322.555 118.674 323.645C118.994 324.725 119.089 325.875 118.959 327.095H107.394C107.524 327.785 107.774 328.41 108.144 328.97C108.524 329.52 109.004 329.955 109.584 330.275C110.174 330.595 110.829 330.76 111.549 330.77C112.309 330.77 112.999 330.58 113.619 330.2C114.249 329.82 114.764 329.295 115.164 328.625L118.329 329.36C117.729 330.69 116.824 331.78 115.614 332.63C114.404 333.47 113.049 333.89 111.549 333.89ZM107.289 324.71H115.809C115.709 323.99 115.454 323.34 115.044 322.76C114.644 322.17 114.139 321.705 113.529 321.365C112.929 321.015 112.269 320.84 111.549 320.84C110.839 320.84 110.179 321.01 109.569 321.35C108.969 321.69 108.469 322.155 108.069 322.745C107.679 323.325 107.419 323.98 107.289 324.71ZM120.938 333.5V311H124.058V333.5H120.938ZM134.254 333.5V318.5H137.374V320.09C137.894 319.47 138.529 318.98 139.279 318.62C140.039 318.26 140.859 318.08 141.739 318.08C142.809 318.08 143.794 318.34 144.694 318.86C145.594 319.37 146.309 320.05 146.839 320.9C147.369 320.05 148.074 319.37 148.954 318.86C149.844 318.34 150.824 318.08 151.894 318.08C153.004 318.08 154.014 318.35 154.924 318.89C155.834 319.43 156.559 320.155 157.099 321.065C157.639 321.975 157.909 322.985 157.909 324.095V333.5H154.789V324.89C154.789 324.23 154.629 323.625 154.309 323.075C153.989 322.525 153.559 322.08 153.019 321.74C152.479 321.4 151.879 321.23 151.219 321.23C150.559 321.23 149.959 321.39 149.419 321.71C148.879 322.03 148.449 322.465 148.129 323.015C147.809 323.565 147.649 324.19 147.649 324.89V333.5H144.529V324.89C144.529 324.19 144.369 323.565 144.049 323.015C143.729 322.465 143.294 322.03 142.744 321.71C142.204 321.39 141.604 321.23 140.944 321.23C140.294 321.23 139.694 321.4 139.144 321.74C138.604 322.08 138.174 322.525 137.854 323.075C137.534 323.625 137.374 324.23 137.374 324.89V333.5H134.254ZM166.921 333.89C165.541 333.89 164.281 333.535 163.141 332.825C162.011 332.115 161.106 331.165 160.426 329.975C159.756 328.775 159.421 327.45 159.421 326C159.421 324.9 159.616 323.875 160.006 322.925C160.396 321.965 160.931 321.125 161.611 320.405C162.301 319.675 163.101 319.105 164.011 318.695C164.921 318.285 165.891 318.08 166.921 318.08C168.071 318.08 169.126 318.32 170.086 318.8C171.046 319.27 171.866 319.925 172.546 320.765C173.226 321.595 173.726 322.555 174.046 323.645C174.366 324.725 174.461 325.875 174.331 327.095H162.766C162.896 327.785 163.146 328.41 163.516 328.97C163.896 329.52 164.376 329.955 164.956 330.275C165.546 330.595 166.201 330.76 166.921 330.77C167.681 330.77 168.371 330.58 168.991 330.2C169.621 329.82 170.136 329.295 170.536 328.625L173.701 329.36C173.101 330.69 172.196 331.78 170.986 332.63C169.776 333.47 168.421 333.89 166.921 333.89ZM162.661 324.71H171.181C171.081 323.99 170.826 323.34 170.416 322.76C170.016 322.17 169.511 321.705 168.901 321.365C168.301 321.015 167.641 320.84 166.921 320.84C166.211 320.84 165.551 321.01 164.941 321.35C164.341 321.69 163.841 322.155 163.441 322.745C163.051 323.325 162.791 323.98 162.661 324.71ZM195.371 311H198.491V333.5H195.371V331.295C194.881 332.075 194.241 332.705 193.451 333.185C192.661 333.655 191.736 333.89 190.676 333.89C189.586 333.89 188.566 333.685 187.616 333.275C186.666 332.865 185.826 332.3 185.096 331.58C184.376 330.85 183.811 330.01 183.401 329.06C182.991 328.11 182.786 327.09 182.786 326C182.786 324.91 182.991 323.89 183.401 322.94C183.811 321.98 184.376 321.14 185.096 320.42C185.826 319.69 186.666 319.12 187.616 318.71C188.566 318.3 189.586 318.095 190.676 318.095C191.736 318.095 192.661 318.335 193.451 318.815C194.241 319.285 194.881 319.905 195.371 320.675V311ZM190.706 330.875C191.586 330.875 192.356 330.66 193.016 330.23C193.676 329.79 194.186 329.2 194.546 328.46C194.916 327.72 195.101 326.9 195.101 326C195.101 325.09 194.916 324.265 194.546 323.525C194.176 322.785 193.661 322.2 193.001 321.77C192.351 321.33 191.586 321.11 190.706 321.11C189.836 321.11 189.041 321.33 188.321 321.77C187.611 322.21 187.041 322.8 186.611 323.54C186.191 324.28 185.981 325.1 185.981 326C185.981 326.91 186.196 327.735 186.626 328.475C187.066 329.205 187.641 329.79 188.351 330.23C189.071 330.66 189.856 330.875 190.706 330.875ZM208.179 333.89C206.799 333.89 205.539 333.535 204.399 332.825C203.269 332.115 202.364 331.165 201.684 329.975C201.014 328.775 200.679 327.45 200.679 326C200.679 324.9 200.874 323.875 201.264 322.925C201.654 321.965 202.189 321.125 202.869 320.405C203.559 319.675 204.359 319.105 205.269 318.695C206.179 318.285 207.149 318.08 208.179 318.08C209.559 318.08 210.814 318.435 211.944 319.145C213.084 319.855 213.989 320.81 214.659 322.01C215.339 323.21 215.679 324.54 215.679 326C215.679 327.09 215.484 328.11 215.094 329.06C214.704 330.01 214.164 330.85 213.474 331.58C212.794 332.3 211.999 332.865 211.089 333.275C210.189 333.685 209.219 333.89 208.179 333.89ZM208.179 330.77C209.009 330.77 209.754 330.55 210.414 330.11C211.074 329.67 211.594 329.09 211.974 328.37C212.364 327.64 212.559 326.85 212.559 326C212.559 325.13 212.359 324.33 211.959 323.6C211.569 322.87 211.044 322.29 210.384 321.86C209.724 321.42 208.989 321.2 208.179 321.2C207.359 321.2 206.614 321.42 205.944 321.86C205.284 322.3 204.759 322.885 204.369 323.615C203.989 324.345 203.799 325.14 203.799 326C203.799 326.89 203.999 327.695 204.399 328.415C204.799 329.135 205.329 329.71 205.989 330.14C206.659 330.56 207.389 330.77 208.179 330.77ZM217.598 333.5V311H220.718V333.5H217.598ZM235.217 318.5H238.337V333.89C238.337 334.92 238.117 335.87 237.677 336.74C237.247 337.61 236.662 338.36 235.922 338.99C235.182 339.63 234.332 340.125 233.372 340.475C232.422 340.825 231.427 341 230.387 341C229.337 341 228.327 340.775 227.357 340.325C226.387 339.885 225.532 339.285 224.792 338.525C224.062 337.765 223.517 336.905 223.157 335.945L226.022 334.655C226.222 335.275 226.542 335.825 226.982 336.305C227.432 336.785 227.952 337.165 228.542 337.445C229.142 337.725 229.757 337.865 230.387 337.865C231.007 337.865 231.602 337.765 232.172 337.565C232.752 337.375 233.267 337.105 233.717 336.755C234.177 336.405 234.542 335.985 234.812 335.495C235.082 335.005 235.217 334.47 235.217 333.89V331.355C234.727 332.115 234.097 332.73 233.327 333.2C232.557 333.66 231.662 333.89 230.642 333.89C229.582 333.89 228.582 333.685 227.642 333.275C226.702 332.865 225.877 332.3 225.167 331.58C224.457 330.85 223.902 330.01 223.502 329.06C223.102 328.11 222.902 327.09 222.902 326C222.902 324.91 223.102 323.89 223.502 322.94C223.902 321.98 224.457 321.14 225.167 320.42C225.877 319.69 226.702 319.12 227.642 318.71C228.582 318.3 229.582 318.095 230.642 318.095C231.662 318.095 232.557 318.33 233.327 318.8C234.097 319.26 234.727 319.875 235.217 320.645V318.5ZM230.672 330.875C231.542 330.875 232.302 330.655 232.952 330.215C233.602 329.765 234.107 329.17 234.467 328.43C234.827 327.69 235.007 326.88 235.007 326C235.007 325.1 234.822 324.285 234.452 323.555C234.092 322.815 233.587 322.225 232.937 321.785C232.287 321.335 231.532 321.11 230.672 321.11C229.832 321.11 229.062 321.33 228.362 321.77C227.672 322.21 227.122 322.8 226.712 323.54C226.302 324.28 226.097 325.1 226.097 326C226.097 326.9 226.302 327.72 226.712 328.46C227.132 329.2 227.687 329.79 228.377 330.23C229.077 330.66 229.842 330.875 230.672 330.875ZM247.973 333.89C246.593 333.89 245.333 333.535 244.193 332.825C243.063 332.115 242.158 331.165 241.478 329.975C240.808 328.775 240.473 327.45 240.473 326C240.473 324.9 240.668 323.875 241.058 322.925C241.448 321.965 241.983 321.125 242.663 320.405C243.353 319.675 244.153 319.105 245.063 318.695C245.973 318.285 246.943 318.08 247.973 318.08C249.123 318.08 250.178 318.32 251.138 318.8C252.098 319.27 252.918 319.925 253.598 320.765C254.278 321.595 254.778 322.555 255.098 323.645C255.418 324.725 255.513 325.875 255.383 327.095H243.818C243.948 327.785 244.198 328.41 244.568 328.97C244.948 329.52 245.428 329.955 246.008 330.275C246.598 330.595 247.253 330.76 247.973 330.77C248.733 330.77 249.423 330.58 250.043 330.2C250.673 329.82 251.188 329.295 251.588 328.625L254.753 329.36C254.153 330.69 253.248 331.78 252.038 332.63C250.828 333.47 249.473 333.89 247.973 333.89ZM243.713 324.71H252.233C252.133 323.99 251.878 323.34 251.468 322.76C251.068 322.17 250.563 321.705 249.953 321.365C249.353 321.015 248.693 320.84 247.973 320.84C247.263 320.84 246.603 321.01 245.993 321.35C245.393 321.69 244.893 322.155 244.493 322.745C244.103 323.325 243.843 323.98 243.713 324.71ZM257.362 333.5V311H260.482V333.5H257.362ZM263.171 327.875V318.5H266.291V327.11C266.291 327.78 266.456 328.39 266.786 328.94C267.116 329.49 267.556 329.93 268.106 330.26C268.656 330.58 269.261 330.74 269.921 330.74C270.591 330.74 271.196 330.58 271.736 330.26C272.286 329.93 272.721 329.49 273.041 328.94C273.371 328.39 273.536 327.78 273.536 327.11V318.5H276.656L276.671 333.5H273.551L273.536 331.88C273.026 332.5 272.391 332.99 271.631 333.35C270.871 333.71 270.056 333.89 269.186 333.89C268.076 333.89 267.066 333.62 266.156 333.08C265.246 332.54 264.521 331.815 263.981 330.905C263.441 329.995 263.171 328.985 263.171 327.875ZM292.321 333.5H288.721L285.031 327.14L282.616 330.02V333.5H279.496V311H282.616V325.175L288.196 318.5H292.276L287.161 324.605L292.321 333.5ZM307.607 333.5H304.007L300.317 327.14L297.902 330.02V333.5H294.782V311H297.902V325.175L303.482 318.5H307.562L302.447 324.605L307.607 333.5ZM309.687 318.5H312.807V333.5H309.687V318.5ZM311.277 316.325C310.797 316.325 310.397 316.17 310.077 315.86C309.757 315.55 309.597 315.16 309.597 314.69C309.597 314.23 309.757 313.845 310.077 313.535C310.397 313.215 310.792 313.055 311.262 313.055C311.722 313.055 312.112 313.215 312.432 313.535C312.752 313.845 312.912 314.23 312.912 314.69C312.912 315.16 312.752 315.55 312.432 315.86C312.122 316.17 311.737 316.325 311.277 316.325ZM327.248 318.5H330.368V333.89C330.368 334.92 330.148 335.87 329.708 336.74C329.278 337.61 328.693 338.36 327.953 338.99C327.213 339.63 326.363 340.125 325.403 340.475C324.453 340.825 323.458 341 322.418 341C321.368 341 320.358 340.775 319.388 340.325C318.418 339.885 317.563 339.285 316.823 338.525C316.093 337.765 315.548 336.905 315.188 335.945L318.053 334.655C318.253 335.275 318.573 335.825 319.013 336.305C319.463 336.785 319.983 337.165 320.573 337.445C321.173 337.725 321.788 337.865 322.418 337.865C323.038 337.865 323.633 337.765 324.203 337.565C324.783 337.375 325.298 337.105 325.748 336.755C326.208 336.405 326.573 335.985 326.843 335.495C327.113 335.005 327.248 334.47 327.248 333.89V331.355C326.758 332.115 326.128 332.73 325.358 333.2C324.588 333.66 323.693 333.89 322.673 333.89C321.613 333.89 320.613 333.685 319.673 333.275C318.733 332.865 317.908 332.3 317.198 331.58C316.488 330.85 315.933 330.01 315.533 329.06C315.133 328.11 314.933 327.09 314.933 326C314.933 324.91 315.133 323.89 315.533 322.94C315.933 321.98 316.488 321.14 317.198 320.42C317.908 319.69 318.733 319.12 319.673 318.71C320.613 318.3 321.613 318.095 322.673 318.095C323.693 318.095 324.588 318.33 325.358 318.8C326.128 319.26 326.758 319.875 327.248 320.645V318.5ZM322.703 330.875C323.573 330.875 324.333 330.655 324.983 330.215C325.633 329.765 326.138 329.17 326.498 328.43C326.858 327.69 327.038 326.88 327.038 326C327.038 325.1 326.853 324.285 326.483 323.555C326.123 322.815 325.618 322.225 324.968 321.785C324.318 321.335 323.563 321.11 322.703 321.11C321.863 321.11 321.093 321.33 320.393 321.77C319.703 322.21 319.153 322.8 318.743 323.54C318.333 324.28 318.128 325.1 318.128 326C318.128 326.9 318.333 327.72 318.743 328.46C319.163 329.2 319.718 329.79 320.408 330.23C321.108 330.66 321.873 330.875 322.703 330.875Z" fill="white"/>
<path d="M34 389C76.6337 422.178 130.389 440.56 186.041 440.992C241.694 441.424 295.773 423.879 339 391.367" stroke="white" stroke-width="12"/>
<rect x="12" y="371" width="44" height="44" rx="22" fill="white"/>
<rect x="12" y="371" width="44" height="44" rx="22" stroke="#9BB167" stroke-width="8"/>
<circle cx="34" cy="393" r="4" fill="#9BB167"/>
<rect x="319" y="371" width="44" height="44" rx="22" fill="white"/>
<rect x="319" y="371" width="44" height="44" rx="22" stroke="#B4C48D" stroke-width="8"/>
<circle cx="341" cy="393" r="4" fill="#9BB167"/>
<rect x="163" y="421" width="44" height="44" rx="22" fill="white"/>
<rect x="163" y="421" width="44" height="44" rx="22" stroke="#9BB167" stroke-width="8"/>
<circle cx="185" cy="443" r="4" fill="#9BB167"/>
<rect x="79" y="403" width="44" height="44" rx="22" fill="white"/>
<rect x="79" y="403" width="44" height="44" rx="22" stroke="#9BB167" stroke-width="8"/>
<circle cx="101" cy="425" r="4" fill="#9BB167"/>
<rect x="250" y="407" width="44" height="44" rx="22" fill="white"/>
<rect x="250" y="407" width="44" height="44" rx="22" stroke="#9BB167" stroke-width="8"/>
<circle cx="272" cy="429" r="4" fill="#9BB167"/>
</g>
<defs>
<clipPath id="clip0_1077_64532">
<rect width="375" height="497" rx="40" fill="white"/>
</clipPath>
</defs>
</svg>
